<?xml version="1.0" standalone="no"?><!DOCTYPE svg PUBLIC "-//W3C//DTD SVG 1.1//EN" "http://www.w3.org/Graphics/SVG/1.1/DTD/svg11.dtd"><svg t="1526960224193" class="icon" style="" viewBox="0 0 1024 1024" version="1.1" xmlns="http://www.w3.org/2000/svg" p-id="1143" xmlns:xlink="http://www.w3.org/1999/xlink" width="128" height="128"><defs><style type="text/css"></style></defs><path d="M1010.697531 364.444363c-12.533454 15.927761-35.805484 15.927761-50.125631 3.536546-476.211912-417.402505-879.031281-17.685801-896.940163 0-7.154957 7.079232-16.110933 10.615779-25.062815 10.615779-8.955976 0-17.907858-3.536546-25.068955-10.615779-12.534478-12.377912-14.319124-35.371602 0-49.520857 3.582595-5.306866 467.265146-465.159182 995.401662-3.535523C1023.224846 327.301418 1025.011538 350.295108 1010.697531 364.444363L1010.697531 364.444363zM867.468432 467.029786c12.452613 9.568936 15.184841 25.433252 10.05296 38.691207-17.959024-4.316306-36.620036-6.857175-55.905264-6.857175-8.299013 0-16.48444 0.435928-24.557302 1.260713-323.591933-260.166391-579.718311 9.644661-590.199013 21.732977-7.163143 8.846482-17.906835 12.383028-26.859741 12.383028-7.153934 0-16.110933-3.536546-23.26589-8.845459-14.326287-12.376888-14.326287-35.369555-1.796926-49.51881C158.510642 472.332559 482.551806 129.21492 867.468432 467.029786L867.468432 467.029786zM500.459664 530.701944c51.345412-2.307555 101.149724 12.026918 148.95859 41.802058-16.654308 17.356296-30.614252 37.228903-41.449018 58.991556-34.241872-20.772093-68.749804-31.124881-103.928001-30.03813-89.514733 1.76725-155.757436 79.57843-155.757436 79.57843-12.535501 15.920598-35.802414 17.690918-50.127677 5.308913-16.110933-12.383028-17.897625-33.605376-5.368264-49.523927C296.371476 631.516024 378.721019 536.003693 500.459664 530.701944L500.459664 530.701944zM511.203356 719.949122c18.74697 0 37.384445 7.629771 50.636261 20.720927 13.258978 13.096273 20.980847 31.509644 20.980847 50.024324 0 18.526959-7.712659 36.931121-20.980847 50.027393-13.251815 13.101389-31.877011 20.721951-50.636261 20.721951-18.747993 0-37.369096-7.630794-50.637284-20.721951-13.253862-13.096273-20.97573-31.505551-20.97573-50.027393 0-18.514679 7.721869-36.919864 20.97573-50.024324C473.821981 727.56866 492.455363 719.949122 511.203356 719.949122L511.203356 719.949122zM821.616128 560.768727c97.682763 0 176.865173 79.183434 176.865173 176.865173 0 97.68788-79.18241 176.87029-176.865173 176.87029-97.688903 0-176.869267-79.18241-176.869267-176.87029C644.746862 639.95216 723.927225 560.768727 821.616128 560.768727L821.616128 560.768727zM806.173414 837.361229c3.820002 4.042059 9.198499 6.39464 14.603603 6.39464 5.409197 0 10.776438-2.352581 14.607696-6.39464 3.821025-4.03899 6.046716-9.726525 6.046716-15.439644 0-5.722328-2.225691-11.400654-6.046716-15.437597-3.820002-4.044106-9.198499-6.39771-14.607696-6.39771-5.40408 0-10.782577 2.353604-14.603603 6.39771-3.827165 4.036943-6.046716 9.725502-6.046716 15.437597C800.126698 827.634704 802.346249 833.32224 806.173414 837.361229L806.173414 837.361229zM793.634844 665.322991l11.516288 105.917308 0.106424 0c0.288572 8.090259 6.764054 14.557554 14.716166 14.557554 7.951089 0 14.431687-6.471388 14.719236-14.557554l0.106424 0 11.529591-105.917308c0.418532-1.963725 0.661056-3.996011 0.661056-6.091742 0-15.306614-12.098549-27.715225-27.01119-27.715225-14.918781 0-27.00812 12.408611-27.00812 27.715225C792.969695 661.32698 793.210172 663.368476 793.634844 665.322991L793.634844 665.322991zM793.634844 665.322991" p-id="1144" fill="#e6e6e6"></path></svg>