<?xml version="1.0" standalone="no"?><!DOCTYPE svg PUBLIC "-//W3C//DTD SVG 1.1//EN" "http://www.w3.org/Graphics/SVG/1.1/DTD/svg11.dtd"><svg t="1526973064846" class="icon" style="" viewBox="0 0 1024 1024" version="1.1" xmlns="http://www.w3.org/2000/svg" p-id="1871" xmlns:xlink="http://www.w3.org/1999/xlink" width="128" height="128"><defs><style type="text/css"></style></defs><path d="M696.704 166.128c9.712 8.928 10 23.664 0.608 32.896L362.208 529.376c-9.392 9.232-24.88 9.504-34.608 0.56-9.728-8.928-10-23.648-0.608-32.896l335.088-330.336C671.488 157.456 686.976 157.216 696.704 166.128z" p-id="1872" fill="#ffffff"></path><path d="M698.224 855.712c-8.496 10.192-23.056 11.008-32.496 1.84l-338.08-326.8c-9.44-9.168-10.208-24.88-1.696-35.056 8.512-10.192 23.056-11.008 32.496-1.84l338.08 326.784C705.952 829.824 706.72 845.536 698.224 855.712z" p-id="1873" fill="#ffffff"></path></svg>