<?xml version="1.0" standalone="no"?><!DOCTYPE svg PUBLIC "-//W3C//DTD SVG 1.1//EN" "http://www.w3.org/Graphics/SVG/1.1/DTD/svg11.dtd"><svg t="1526980180673" class="icon" style="" viewBox="0 0 1024 1024" version="1.1" xmlns="http://www.w3.org/2000/svg" p-id="7022" xmlns:xlink="http://www.w3.org/1999/xlink" width="128" height="128"><defs><style type="text/css"></style></defs><path d="M512 0c-282.572704 0-511.643889 229.071186-511.643889 511.643889s229.071186 511.643889 511.643889 511.643889 511.643889-229.071186 511.643889-511.643889S794.572704 0 512 0zM512 958.834838c-246.976998 0-447.190949-200.213951-447.190949-447.190949S265.023002 64.452941 512 64.452941s447.190949 200.213951 447.190949 447.190949S758.976998 958.834838 512 958.834838z" fill="#ffffff" p-id="7023"></path><path d="M511.696078 671.714562L511.696078 671.714562c-17.661242 0-31.978319-14.317077-31.978319-31.978319L479.717759 255.92274c0-17.661242 14.317077-31.978319 31.978319-31.978319l0 0c17.661242 0 31.978319 14.317077 31.978319 31.978319l0 383.812479C543.674397 657.396461 529.35732 671.714562 511.696078 671.714562z" fill="#ffffff" p-id="7024"></path><path d="M511.679705 767.692496m-31.978319 0a31.25 31.25 0 1 0 63.956637 0 31.25 31.25 0 1 0-63.956637 0Z" fill="#ffffff" p-id="7025"></path></svg>